<svg width="618" height="629" viewBox="0 0 618 629" fill="none" xmlns="http://www.w3.org/2000/svg">
<path d="M444.006 84.393L423.222 75.4257C412.663 70.9002 400.259 75.761 395.734 86.3206L364.809 158.143L115.485 50.7866C111.965 22.2087 87.4938 0 57.994 0C26.0638 0 0 25.98 0 57.9102C0 89.8404 25.98 115.904 57.994 115.904C68.3022 115.904 78.0237 113.222 86.4044 108.445L356.596 224.852L379.308 234.658C388.359 238.597 398.834 235.496 404.45 227.786C405.371 226.529 406.126 225.188 406.712 223.763L416.015 202.225L416.182 201.89L454.985 111.798C459.51 101.322 454.566 89.0024 444.006 84.393ZM57.994 89.3376C55.9826 89.3376 54.0551 89.17 52.1276 88.7509C37.6291 85.9853 26.6504 73.2468 26.6504 57.9102C26.6504 40.6461 40.7299 26.5666 57.994 26.5666C67.3803 26.5666 75.761 30.6731 81.4598 37.21C86.3206 42.7412 89.3376 50.0324 89.3376 57.994C89.3376 75.2581 75.2581 89.3376 57.994 89.3376Z" fill="white"/>
<path d="M415.931 202.309C415.847 202.56 415.763 202.728 415.679 202.979L406.712 223.763C406.712 223.763 406.712 223.847 406.628 223.847L415.931 202.309Z" fill="white"/>
<path d="M346.372 129.481L214.46 72.6599C209.348 70.481 207.002 64.5307 209.181 59.4185L226.78 18.6048C228.959 13.4926 234.909 11.1461 240.021 13.325L371.933 70.1457C377.045 72.3247 379.391 78.275 377.212 83.3871L359.613 124.201C357.434 129.313 351.484 131.66 346.372 129.481Z" fill="white"/>
<path d="M404.366 227.87C398.751 235.58 388.275 238.681 379.14 234.826L358.356 225.858C357.769 225.607 357.099 225.272 356.512 224.937L379.224 234.742C388.359 238.597 398.751 235.58 404.366 227.87Z" fill="white"/>
<path d="M417.607 425.066L396.739 416.182C396.739 416.182 396.656 416.182 396.656 416.099L417.607 425.066Z" fill="white"/>
<path d="M490.686 355.423L546.92 223.26C549.099 218.148 555.05 215.801 560.078 217.98L600.892 235.328C606.004 237.507 608.35 243.457 606.171 248.486L549.937 380.648C547.758 385.761 541.808 388.107 536.78 385.928L495.966 368.58C490.938 366.401 488.507 360.451 490.686 355.423Z" fill="white"/>
<path d="M389.7 411.322C389.783 411.406 389.783 411.406 389.867 411.489C389.867 411.406 389.783 411.406 389.7 411.322C389.783 411.322 389.783 411.322 389.7 411.322Z" fill="white"/>
<path d="M388.945 410.4C389.197 410.735 389.448 410.986 389.7 411.238C384.085 405.371 382.157 396.488 385.509 388.61L394.393 367.742C394.644 367.156 394.979 366.569 395.315 365.982L385.677 388.694C384.42 391.711 383.833 394.896 384.001 397.996C384.001 398.248 384.001 398.416 384.085 398.583C384.085 398.835 384.085 399.002 384.168 399.254V399.337C384.252 399.673 384.252 400.092 384.336 400.427C384.42 400.762 384.42 401.097 384.504 401.433C384.504 401.6 384.587 401.768 384.671 401.935C384.755 402.271 384.839 402.522 384.923 402.773C385.006 403.109 385.09 403.444 385.258 403.779C385.258 403.947 385.342 404.03 385.425 404.198C385.509 404.533 385.677 404.869 385.844 405.12C386.012 405.455 386.096 405.707 386.263 406.042C386.347 406.209 386.431 406.461 386.599 406.629C386.599 406.712 386.683 406.796 386.683 406.88C386.85 407.131 386.934 407.383 387.102 407.55C387.185 407.802 387.353 407.969 387.521 408.137C387.688 408.388 387.856 408.724 388.107 408.975C388.275 409.143 388.359 409.394 388.526 409.562C388.526 409.897 388.694 410.148 388.945 410.4Z" fill="white"/>
<path d="M391.627 413.082C391.292 412.746 390.957 412.495 390.621 412.16C390.873 412.411 391.208 412.746 391.627 413.082Z" fill="white"/>
<path d="M204.32 406.964L195.269 428.502C195.353 428.334 195.436 428.083 195.52 427.915L204.32 407.048C204.32 406.964 204.32 406.964 204.32 406.964Z" fill="white"/>
<path d="M265.499 500.743L397.913 556.39C403.025 558.569 405.455 564.436 403.276 569.548L386.096 610.446C383.917 615.558 378.051 617.988 372.938 615.809L240.524 560.162C235.412 557.983 232.982 552.116 235.161 547.004L252.341 506.107C254.436 500.994 260.386 498.564 265.499 500.743Z" fill="white"/>
<path d="M254.352 405.371L231.641 395.817C223.512 392.465 214.377 394.56 208.594 400.51C214.377 394.476 223.595 392.297 231.725 395.733L252.592 404.533C253.263 404.785 253.849 405.036 254.352 405.371Z" fill="white"/>
<path d="M212.617 214.628L190.827 205.577C191.079 205.661 191.33 205.745 191.581 205.912L212.533 214.628C212.617 214.544 212.617 214.544 212.617 214.628Z" fill="white"/>
<path d="M119.089 276.142L64.028 408.807C61.9329 413.919 55.9826 416.35 50.8704 414.255L9.88913 397.242C4.77694 395.147 2.34656 389.197 4.44172 384.084L59.5025 251.503C61.5977 246.391 67.5479 243.96 72.6601 246.055L113.641 263.068C118.837 265.163 121.268 271.03 119.089 276.142Z" fill="white"/>
<path d="M558.821 6.45312C526.891 6.45312 500.827 32.4331 500.827 64.3633C500.827 76.0124 504.263 86.8234 510.213 95.8745L395.315 365.982L385.677 388.694C384.42 391.711 383.833 394.896 384.001 397.996C384.001 398.164 384.001 398.415 384.084 398.583C384.084 398.835 384.085 399.002 384.168 399.254V399.337C384.252 399.673 384.252 400.092 384.336 400.427C384.42 400.762 384.42 401.097 384.504 401.432C384.504 401.6 384.587 401.768 384.671 401.935C384.755 402.271 384.839 402.522 384.923 402.773C385.006 403.109 385.09 403.444 385.258 403.779C385.258 403.947 385.342 404.03 385.425 404.198C385.509 404.533 385.677 404.869 385.844 405.12C386.012 405.455 386.096 405.707 386.263 406.042C386.347 406.209 386.431 406.461 386.599 406.628C386.599 406.712 386.683 406.796 386.683 406.88C386.85 407.131 386.934 407.383 387.102 407.55C387.185 407.802 387.353 407.969 387.521 408.137C387.688 408.388 387.856 408.724 388.107 408.975C388.275 409.143 388.359 409.394 388.526 409.562C388.778 409.813 388.945 410.065 389.197 410.4C389.364 410.567 389.448 410.735 389.616 410.903C389.7 410.986 389.7 410.986 389.783 411.07C389.867 411.154 389.867 411.154 389.951 411.238C390.035 411.322 390.035 411.322 390.035 411.322C390.621 411.908 391.208 412.495 391.878 412.998C392.214 413.249 392.549 413.501 392.884 413.752C394.141 414.674 395.482 415.428 396.907 416.015L417.858 424.982L418.864 425.401L509.124 463.784C519.683 468.31 532.087 463.282 536.528 452.722L545.412 431.854C549.937 421.295 544.909 408.975 534.349 404.45L462.36 373.86L569.799 121.352C596.701 116.323 617.066 92.6899 617.066 64.3633C616.815 32.4331 590.835 6.45312 558.821 6.45312ZM581.7 85.8177C576.001 91.9356 567.872 95.7069 558.821 95.7069C541.557 95.7069 527.477 81.6274 527.477 64.3633C527.477 63.7767 527.477 63.1062 527.561 62.5196C528.483 46.0935 542.143 33.0197 558.905 33.0197C576.169 33.0197 590.248 47.0992 590.248 64.3633C590.248 72.6602 586.98 80.2027 581.7 85.8177Z" fill="white"/>
<path d="M217.98 217.813C216.388 216.472 214.628 215.383 212.701 214.628L190.911 205.577L190.659 205.493L100.065 167.948C89.4214 163.506 77.1019 168.619 72.7439 179.262L64.0281 200.214C59.5863 210.857 64.6985 223.177 75.3419 227.534L147.583 257.537L41.6518 512.811C17.5993 519.851 0 542.144 0 568.459C0 600.389 25.98 626.453 57.994 626.453C89.9242 626.453 115.988 600.473 115.988 568.459C115.988 554.882 111.295 542.395 103.417 532.506L214.46 264.744C214.796 264.158 215.047 263.571 215.299 262.985L224.014 242.033C227.534 233.317 224.852 223.512 217.98 217.813ZM57.994 599.802C40.7299 599.802 26.6504 585.723 26.6504 568.459C26.6504 562.089 28.578 556.223 31.7626 551.278C37.3776 542.73 47.0154 537.115 57.994 537.115C74.1686 537.115 87.4938 549.435 89.17 565.19C89.2538 566.28 89.3376 567.369 89.3376 568.459C89.3376 585.723 75.2581 599.802 57.994 599.802Z" fill="white"/>
<path d="M555.636 512.057C545.16 512.057 535.271 514.906 526.723 519.767L254.352 405.371L231.641 395.817C223.512 392.465 214.377 394.56 208.594 400.51C206.834 402.354 205.326 404.449 204.32 406.964L195.269 428.502L157.137 519.348C152.695 529.991 157.724 542.311 168.283 546.753L189.151 555.552C199.794 559.994 212.114 554.966 216.556 544.406L246.894 472.249L498.229 577.845C502 606.171 526.304 628.045 555.636 628.045C587.566 628.045 613.63 602.065 613.63 570.051C613.63 538.12 587.65 512.057 555.636 512.057ZM555.636 601.394C546.166 601.394 537.702 597.204 532.003 590.583C527.226 585.052 524.293 577.845 524.293 570.051C524.293 552.787 538.372 538.707 555.636 538.707C557.229 538.707 558.737 538.791 560.329 539.042C575.414 541.305 587.064 554.379 587.064 570.051C587.064 587.315 572.984 601.394 555.636 601.394Z" fill="white"/>
</svg>
